<svg viewBox="0 0 142.79 69.72" xml:space="preserve" xmlns="http://www.w3.org/2000/svg"><g style="fill:#000"><path d="m389.922 313.986.001-113.656c-.002-23.822-19.383-43.205-43.206-43.206H87.736c-23.882 0-43.207 19.326-43.206 43.206v113.655c0 6.507 5.274 11.784 11.783 11.784 6.508 0 11.783-5.276 11.784-11.784v-41.277h30.072v41.277c0 6.507 5.275 11.783 11.783 11.783 6.508 0 11.783-5.275 11.784-11.783v-41.277h30.071v41.277c0 6.507 5.274 11.784 11.784 11.784 6.507 0 11.783-5.276 11.783-11.784v-41.277h30.07v41.277c0 6.507 5.276 11.783 11.784 11.783 6.508 0 11.783-5.275 11.784-11.783l-.001-41.277h30.072v41.277c0 6.507 5.275 11.783 11.783 11.783 6.508 0 11.783-5.275 11.784-11.783v-41.277h30.071v41.278c-.001 6.507 5.273 11.784 11.783 11.784 6.507 0 11.783-5.275 11.783-11.784V272.71h30.072v41.277c0 6.506 5.274 11.783 11.784 11.783 6.504 0 11.78-5.276 11.78-11.784z" style="stroke-width:.999998" transform="translate(-18.41 -64.957) scale(.41341)"/></g></svg>